<svg width="24" height="24" viewBox="0 0 24 24" fill="none" xmlns="http://www.w3.org/2000/svg">
<path d="M8.46505 11.2931C9.59805 10.1601 11.5741 10.1601 12.7071 11.2931L13.4141 12.0001L14.8281 10.5861L14.1211 9.87906C13.1781 8.93506 11.9221 8.41406 10.5861 8.41406C9.25005 8.41406 7.99405 8.93506 7.05105 9.87906L4.92905 12.0001C3.99384 12.939 3.46875 14.2103 3.46875 15.5356C3.46875 16.8608 3.99384 18.1321 4.92905 19.0711C5.39283 19.5357 5.9439 19.9041 6.55058 20.155C7.15725 20.4059 7.80755 20.5344 8.46405 20.5331C9.12073 20.5345 9.77122 20.4061 10.3781 20.1552C10.9849 19.9043 11.5362 19.5359 12.0001 19.0711L12.7071 18.3641L11.2931 16.9501L10.5861 17.6571C10.0225 18.2181 9.25973 18.533 8.46455 18.533C7.66938 18.533 6.90658 18.2181 6.34305 17.6571C5.78156 17.0938 5.46626 16.3309 5.46626 15.5356C5.46626 14.7402 5.78156 13.9773 6.34305 13.4141L8.46505 11.2931Z" fill="white"/>
<path d="M11.9999 4.92899L11.2929 5.63599L12.7069 7.04999L13.4139 6.34299C13.9774 5.78198 14.7402 5.46702 15.5354 5.46702C16.3305 5.46702 17.0933 5.78198 17.6569 6.34299C18.2184 6.90626 18.5337 7.66916 18.5337 8.46449C18.5337 9.25983 18.2184 10.0227 17.6569 10.586L15.5349 12.707C14.4019 13.84 12.4259 13.84 11.2929 12.707L10.5859 12L9.17188 13.414L9.87887 14.121C10.8219 15.065 12.0779 15.586 13.4139 15.586C14.7499 15.586 16.0059 15.065 16.9489 14.121L19.0709 12C20.0061 11.061 20.5312 9.78975 20.5312 8.46449C20.5312 7.13924 20.0061 5.86797 19.0709 4.92899C18.1324 3.9928 16.861 3.46704 15.5354 3.46704C14.2098 3.46704 12.9383 3.9928 11.9999 4.92899Z" fill="white"/>
</svg>
