<svg width="44" height="51" viewBox="0 0 44 51" fill="none" xmlns="http://www.w3.org/2000/svg">
<path d="M13.34 10.2056L10.1699 9.77657C10.0462 9.76007 9.941 9.68376 9.88737 9.57239L8.4993 6.68902C8.1858 6.03725 7.25971 6.03725 6.94624 6.68902L5.55817 9.57239C5.50455 9.68376 5.39936 9.76007 5.27767 9.77657L2.1076 10.2056C1.3919 10.3025 1.10524 11.1853 1.62704 11.6844L3.94116 13.8954C4.02985 13.98 4.0711 14.1058 4.04841 14.2254L3.47505 17.3728C3.34512 18.0844 4.09588 18.6288 4.73112 18.2865L7.54848 16.7685C7.6578 16.7107 7.78773 16.7107 7.89705 16.7685L10.7144 18.2844C11.3497 18.6268 12.1004 18.0823 11.9705 17.3707L11.3992 14.2234C11.3765 14.1017 11.4177 13.9779 11.5064 13.8913L13.8206 11.6803C14.3424 11.1812 14.0557 10.2984 13.34 10.2015L13.34 10.2056Z" fill="black"/>
<path d="M43.2524 10.2056L40.0823 9.77657C39.9585 9.76007 39.8533 9.68376 39.7997 9.57239L38.4117 6.68902C38.0982 6.03725 37.1721 6.03725 36.8586 6.68902L35.4705 9.57239C35.4169 9.68376 35.3117 9.76007 35.19 9.77657L32.02 10.2056C31.3043 10.3025 31.0176 11.1853 31.5394 11.6844L33.8535 13.8954C33.9422 13.98 33.9835 14.1058 33.9608 14.2254L33.3874 17.3728C33.2575 18.0844 34.0082 18.6288 34.6435 18.2865L37.4608 16.7685C37.5701 16.7107 37.7001 16.7107 37.8094 16.7685L40.6268 18.2844C41.262 18.6268 42.0128 18.0823 41.8828 17.3707L41.3115 14.2234C41.2888 14.1017 41.3301 13.9779 41.4188 13.8913L43.7329 11.6803C44.2547 11.1812 43.968 10.2984 43.2523 10.2015L43.2524 10.2056Z" fill="black"/>
<path d="M29.0211 4.51896L25.4427 4.03634C25.3045 4.01777 25.1849 3.93115 25.123 3.80534L23.5555 0.55068C23.2028 -0.18356 22.1551 -0.18356 21.8024 0.55068L20.2348 3.8074C20.175 3.93321 20.0554 4.01983 19.9172 4.0384L16.3367 4.52102C15.5282 4.63033 15.2044 5.62655 15.7943 6.18961L18.4054 8.68527C18.5065 8.7822 18.5519 8.92246 18.5271 9.05858L17.8795 12.6123C17.733 13.4146 18.5807 14.0292 19.2985 13.6435L22.4809 11.9296C22.6026 11.8636 22.7511 11.8636 22.8728 11.9296L26.0532 13.6415C26.7709 14.0292 27.6186 13.4125 27.4722 12.6102L26.8266 9.05652C26.8018 8.91833 26.8472 8.77809 26.9483 8.68321L29.5594 6.18755C30.1493 5.62449 29.8254 4.62831 29.017 4.51896H29.0211Z" fill="black"/>
<path d="M36.6091 37.0221C36.6091 36.0465 36.0893 35.137 35.2437 34.6811L34.7879 34.4213L35.2437 34.1614C36.1554 33.6416 36.6751 32.5362 36.5451 31.4946C36.4152 30.1931 35.1138 29.1536 33.6844 29.1536H23.541L23.6709 28.7638C23.7369 28.5679 23.8669 28.374 23.9308 28.178L23.9947 28.0481C24.5145 26.5528 25.62 23.886 25.62 21.155C25.62 18.2283 23.6049 16.4731 22.1736 16.3432C21.3939 16.2772 20.8082 16.733 20.6782 17.6446C20.4184 19.3998 19.3768 21.9367 18.5312 23.7578C18.3352 24.1476 18.1414 24.4735 17.8815 24.7973C16.9698 25.8369 14.8248 28.2438 12.6798 29.7391V48.6627C16.2562 49.7022 19.5069 50.158 22.8893 50.158H31.0838C32.4492 50.158 33.6207 49.2484 33.8806 48.013C34.1405 47.0374 33.8146 46.0619 33.035 45.4122L32.5792 45.0224L33.1649 44.8924C34.4003 44.6326 35.246 43.5271 35.246 42.2916C35.246 41.512 34.9201 40.7963 34.3364 40.2765L33.8806 39.8867L34.4664 39.7568C35.6379 39.4309 36.5474 38.3914 36.6114 37.026L36.6091 37.0221Z" fill="black"/>
<path d="M8.12811 28.2441H1.62524C0.713595 28.2441 0 28.9598 0 29.8694V48.4672C0 49.3768 0.715707 50.0924 1.62524 50.0924H8.12811C9.0377 50.0924 9.75336 49.3767 9.75336 48.4672V29.8694C9.75336 28.9598 8.97371 28.2441 8.12811 28.2441ZM4.87763 47.1677C3.90204 47.1677 3.18639 46.3881 3.18639 45.4765C3.18639 44.5009 3.96603 43.7852 4.87763 43.7852C5.85322 43.7852 6.56887 44.5649 6.56887 45.4765C6.56887 46.4521 5.78923 47.1677 4.87763 47.1677Z" fill="black"/>
</svg>
