<svg width="20" height="20" viewBox="0 0 20 20" fill="none" xmlns="http://www.w3.org/2000/svg">
<g clip-path="url(#clip0_59_4)">
<path d="M10 0C6.7298 0 4.0498 2.672 4.0498 5.9332C4.0498 7.1968 4.4534 8.3712 5.1364 9.3364L9.2738 16.489C9.85321 17.246 10.2384 17.1022 10.7202 16.449L15.2838 8.683C15.3758 8.5162 15.4482 8.3386 15.5112 8.1572C15.8007 7.45147 15.9496 6.696 15.9496 5.9332C15.9498 2.672 13.2706 0 10 0ZM10 2.78C11.7612 2.78 13.1616 4.1772 13.1616 5.9332C13.1616 7.6892 11.7612 9.086 10 9.086C8.239 9.086 6.83801 7.6896 6.83801 5.9334C6.83801 4.1772 8.23901 2.7802 9.99981 2.7802" fill="black"/>
<path d="M13.7826 9.78174L13.773 9.80694L13.7814 9.78394L13.7826 9.78174ZM6.8012 13.8115C3.976 14.2107 2 15.1657 2 16.5715C2 18.4651 5.3016 20.0001 10 20.0001C14.6984 20.0001 18 18.4651 18 16.5715C18 15.1657 16.0242 14.2107 13.1992 13.8115L12.8078 14.4779C14.937 14.7733 16.4 15.3941 16.4 16.1145C16.4 17.1245 13.5346 17.9431 10 17.9431C6.4654 17.9431 3.6 17.1245 3.6 16.1145C3.5998 15.3965 5.0532 14.7763 7.189 14.4797L6.8012 13.8115Z" fill="black"/>
</g>
<defs>
<clipPath id="clip0_59_4">
<rect width="20" height="20" fill="white"/>
</clipPath>
</defs>
</svg>
