<svg width="20" height="20" viewBox="0 0 20 20" fill="none" xmlns="http://www.w3.org/2000/svg">
<path d="M15.875 4.09155C15.1109 3.31997 14.2008 2.70819 13.1979 2.29185C12.195 1.87551 11.1192 1.66295 10.0333 1.66655C5.48331 1.66655 1.77498 5.37488 1.77498 9.92488C1.77498 11.3832 2.15831 12.7999 2.87498 14.0499L1.70831 18.3332L6.08331 17.1832C7.29165 17.8415 8.64998 18.1915 10.0333 18.1915C14.5833 18.1915 18.2916 14.4832 18.2916 9.93322C18.2916 7.72488 17.4333 5.64988 15.875 4.09155ZM10.0333 16.7915C8.79998 16.7915 7.59165 16.4582 6.53331 15.8332L6.28331 15.6832L3.68331 16.3665L4.37498 13.8332L4.20831 13.5749C3.52294 12.4808 3.15908 11.2159 3.15831 9.92488C3.15831 6.14155 6.24165 3.05822 10.025 3.05822C11.8583 3.05822 13.5833 3.77488 14.875 5.07488C15.5147 5.71143 16.0216 6.46867 16.3663 7.30266C16.7111 8.13664 16.8868 9.03079 16.8833 9.93322C16.9 13.7165 13.8166 16.7915 10.0333 16.7915ZM13.8 11.6582C13.5916 11.5582 12.575 11.0582 12.3916 10.9832C12.2 10.9165 12.0666 10.8832 11.925 11.0832C11.7833 11.2915 11.3916 11.7582 11.275 11.8915C11.1583 12.0332 11.0333 12.0499 10.825 11.9415C10.6166 11.8415 9.94998 11.6165 9.16665 10.9165C8.54998 10.3665 8.14165 9.69155 8.01665 9.48322C7.89998 9.27488 7.99998 9.16655 8.10831 9.05822C8.19998 8.96655 8.31665 8.81655 8.41665 8.69988C8.51665 8.58321 8.55831 8.49155 8.62498 8.35822C8.69165 8.21655 8.65831 8.09988 8.60831 7.99988C8.55831 7.89988 8.14165 6.88322 7.97498 6.46655C7.80831 6.06655 7.63331 6.11655 7.50831 6.10821H7.10831C6.96665 6.10821 6.74998 6.15821 6.55831 6.36655C6.37498 6.57488 5.84165 7.07488 5.84165 8.09155C5.84165 9.10821 6.58331 10.0915 6.68331 10.2249C6.78331 10.3665 8.14165 12.4499 10.2083 13.3415C10.7 13.5582 11.0833 13.6832 11.3833 13.7749C11.875 13.9332 12.325 13.9082 12.6833 13.8582C13.0833 13.7999 13.9083 13.3582 14.075 12.8749C14.25 12.3915 14.25 11.9832 14.1916 11.8915C14.1333 11.7999 14.0083 11.7582 13.8 11.6582Z" fill="white"/>
</svg>
