<svg width="30" height="30" viewBox="0 0 30 30" fill="none" xmlns="http://www.w3.org/2000/svg">
<path d="M22.875 7.13754C22.7594 7.02166 22.622 6.92972 22.4708 6.86699C22.3196 6.80427 22.1575 6.77198 21.9938 6.77198C21.8301 6.77198 21.668 6.80427 21.5168 6.86699C21.3655 6.92972 21.2282 7.02166 21.1125 7.13754L15 13.2375L8.88754 7.12504C8.77181 7.00931 8.63442 6.91751 8.48321 6.85488C8.33201 6.79225 8.16995 6.76001 8.00629 6.76001C7.84262 6.76001 7.68056 6.79225 7.52936 6.85488C7.37815 6.91751 7.24076 7.00931 7.12504 7.12504C7.00931 7.24076 6.91751 7.37815 6.85488 7.52936C6.79225 7.68056 6.76001 7.84262 6.76001 8.00629C6.76001 8.16995 6.79225 8.33201 6.85488 8.48321C6.91751 8.63442 7.00931 8.77181 7.12504 8.88754L13.2375 15L7.12504 21.1125C7.00931 21.2283 6.91751 21.3656 6.85488 21.5169C6.79225 21.6681 6.76001 21.8301 6.76001 21.9938C6.76001 22.1574 6.79225 22.3195 6.85488 22.4707C6.91751 22.6219 7.00931 22.7593 7.12504 22.875C7.24076 22.9908 7.37815 23.0826 7.52936 23.1452C7.68056 23.2078 7.84262 23.2401 8.00629 23.2401C8.16995 23.2401 8.33201 23.2078 8.48321 23.1452C8.63442 23.0826 8.77181 22.9908 8.88754 22.875L15 16.7625L21.1125 22.875C21.2283 22.9908 21.3656 23.0826 21.5169 23.1452C21.6681 23.2078 21.8301 23.2401 21.9938 23.2401C22.1574 23.2401 22.3195 23.2078 22.4707 23.1452C22.6219 23.0826 22.7593 22.9908 22.875 22.875C22.9908 22.7593 23.0826 22.6219 23.1452 22.4707C23.2078 22.3195 23.2401 22.1574 23.2401 21.9938C23.2401 21.8301 23.2078 21.6681 23.1452 21.5169C23.0826 21.3656 22.9908 21.2283 22.875 21.1125L16.7625 15L22.875 8.88754C23.35 8.41254 23.35 7.61254 22.875 7.13754Z" fill="white"/>
</svg>
