<svg width="24" height="24" viewBox="0 0 24 24" fill="none" xmlns="http://www.w3.org/2000/svg">
<path d="M5.625 3H10.875C11.1734 3 11.4595 3.11853 11.6705 3.32951C11.8815 3.54048 12 3.82663 12 4.125C12 4.42337 11.8815 4.70952 11.6705 4.9205C11.4595 5.13147 11.1734 5.25 10.875 5.25H5.625C5.52554 5.25 5.43016 5.28951 5.35984 5.35984C5.28951 5.43016 5.25 5.52554 5.25 5.625V18.375C5.25 18.582 5.418 18.75 5.625 18.75H18.375C18.4745 18.75 18.5698 18.7105 18.6402 18.6402C18.7105 18.5698 18.75 18.4745 18.75 18.375V13.125C18.75 12.8266 18.8685 12.5405 19.0795 12.3295C19.2905 12.1185 19.5766 12 19.875 12C20.1734 12 20.4595 12.1185 20.6705 12.3295C20.8815 12.5405 21 12.8266 21 13.125V18.375C21 19.0712 20.7234 19.7389 20.2312 20.2312C19.7389 20.7234 19.0712 21 18.375 21H5.625C4.92881 21 4.26113 20.7234 3.76884 20.2312C3.27656 19.7389 3 19.0712 3 18.375V5.625C3 4.176 4.176 3 5.625 3ZM15.906 1.5H22.125C22.2245 1.5 22.3198 1.53951 22.3902 1.60984C22.4605 1.68016 22.5 1.77554 22.5 1.875V8.094C22.5001 8.16827 22.4782 8.2409 22.437 8.30269C22.3958 8.36448 22.3372 8.41265 22.2686 8.44109C22.2 8.46953 22.1245 8.47695 22.0517 8.46243C21.9788 8.4479 21.9119 8.41208 21.8595 8.3595L19.545 6.045L13.92 11.67C13.7068 11.869 13.4246 11.9774 13.133 11.9723C12.8415 11.9673 12.5632 11.8492 12.357 11.643C12.1508 11.4368 12.0327 11.1585 12.0277 10.867C12.0226 10.5754 12.131 10.2932 12.33 10.08L17.955 4.455L15.6405 2.1405C15.5879 2.08805 15.5521 2.02117 15.5376 1.94834C15.523 1.87551 15.5305 1.80001 15.5589 1.7314C15.5874 1.6628 15.6355 1.60418 15.6973 1.56299C15.7591 1.52179 15.8317 1.49987 15.906 1.5Z" fill="black"/>
</svg>
