<svg width="24" height="24" viewBox="0 0 24 24" fill="none" xmlns="http://www.w3.org/2000/svg">
<g clip-path="url(#clip0_94_15)">
<path d="M20.4491 20.4494H16.8931V14.8804C16.8931 13.5524 16.8694 11.8429 15.0436 11.8429C13.1915 11.8429 12.9081 13.2898 12.9081 14.7837V20.449H9.35212V8.9969H12.7658V10.562H12.8137C13.1553 9.97783 13.649 9.4973 14.2421 9.17152C14.8353 8.84575 15.5057 8.68694 16.1819 8.712C19.7861 8.712 20.4506 11.0827 20.4506 14.1669L20.4491 20.4494ZM5.33963 7.43156C4.19991 7.43175 3.27581 6.50794 3.27562 5.36822C3.27544 4.2285 4.19916 3.3044 5.33887 3.30422C6.47859 3.30394 7.40269 4.22775 7.40287 5.36747C7.40297 5.91478 7.18566 6.43972 6.79872 6.82681C6.41179 7.2139 5.88694 7.43144 5.33963 7.43156ZM7.11769 20.4495H3.55791V8.9969H7.11759L7.11769 20.4495ZM22.2219 0.0016857H1.77103C0.804469 -0.00918929 0.0118125 0.765092 0 1.73165V22.2679C0.0114375 23.2349 0.804 24.0099 1.77094 23.9998H22.2219C23.1909 24.0118 23.9866 23.2368 24 22.2679V1.73006C23.9862 0.761623 23.1905 -0.0125643 22.2219 9.19548e-05" fill="#0A66C2"/>
</g>
<defs>
<clipPath id="clip0_94_15">
<rect width="24" height="24" fill="white"/>
</clipPath>
</defs>
</svg>
