<svg width="18" height="18" viewBox="0 0 18 18" fill="none" xmlns="http://www.w3.org/2000/svg">
<path d="M6.66234 5.00769C6.56883 4.54615 6.54545 4.26923 6.66234 3.9C6.68571 3.83077 6.70909 3.76154 6.73247 3.73846C6.75584 3.76154 6.75584 3.80769 6.77922 3.87692C6.87273 4.38462 6.87273 4.54615 6.73247 5.21538C6.68571 5.12308 6.66234 5.07692 6.66234 5.00769ZM7.03636 7.91538C6.96623 8.14615 6.87273 8.4 6.77922 8.72308C6.52208 9.48462 6.40519 9.78462 6.35844 9.94615C6.28831 10.1769 6.28831 10.1769 6.12468 10.5462L6.1013 10.5923C6.05454 10.7308 5.98442 10.8692 5.91429 11.0077C6.42857 10.8 6.77922 10.6846 7.36364 10.5L7.69091 10.3846C7.92468 10.3154 8.13506 10.2462 8.2987 10.1769C8.36883 10.1538 8.43896 10.1308 8.50909 10.1077C8.36883 9.94615 8.25195 9.76154 8.08831 9.55385C7.66753 9 7.38701 8.53846 7.03636 7.91538ZM2.8987 13.8C2.73506 14.2154 2.80519 14.2615 2.82857 14.2846C2.8987 14.3308 3.01558 14.3769 3.10909 14.3077C3.24935 14.1692 3.2961 14.0769 3.52987 13.6385C3.6 13.5231 3.67013 13.3615 3.76364 13.2C3.78701 13.1538 3.81039 13.1077 3.83377 13.0615C3.41299 13.2923 2.96883 13.5692 2.8987 13.8ZM11.5714 11.0769C11.6649 11.0538 11.7117 11.0308 11.7117 11.0308C11.7117 11.0077 11.7117 10.9385 11.7117 10.8692C11.7117 10.8462 11.6416 10.7538 11.4078 10.7077C11.0571 10.6385 10.8234 10.6385 10.613 10.6385C10.5429 10.6385 10.4727 10.6385 10.426 10.6385C10.8234 10.9615 11.0104 11.0538 11.1273 11.0769C11.174 11.1 11.3844 11.1 11.5714 11.0769ZM14.4935 10.0385V13.3615L9.86493 18H2.31429C1.02857 18 0 16.9615 0 15.6692V2.33077C0 1.03846 1.02857 0 2.31429 0H12.1792C13.3481 0 14.2831 0.853846 14.4701 1.96154C12.226 1.98462 10.4026 3.78462 10.4026 6C10.4026 8.23846 12.226 10.0385 14.4935 10.0385ZM13.3714 13.8231H11.0104C10.613 13.8231 10.3091 14.1231 10.3091 14.5154V16.8923L13.3714 13.8231ZM11.5481 9.78462C11.1273 9.71539 10.8468 9.71538 10.5896 9.71538C10.3325 9.71538 10.1221 9.73846 9.79481 9.78462C9.7013 9.80769 9.58442 9.83077 9.51429 9.83077C9.28052 9.6 9.11688 9.36923 8.85974 9.02308C8.36883 8.33077 8.06494 7.84615 7.57403 6.99231C7.5039 6.87692 7.43377 6.73846 7.36364 6.62308C7.41039 6.41538 7.45714 6.18462 7.5039 5.90769L7.57403 5.58462C7.76104 4.70769 7.80779 4.40769 7.66753 3.69231C7.5039 2.90769 6.96623 2.72308 6.68571 2.74615C6.54545 2.74615 5.98442 2.83846 5.75065 3.64615C5.58701 4.2 5.61039 4.61538 5.75065 5.19231C5.84416 5.60769 6.05455 6.11538 6.4052 6.73846C6.28831 7.22308 6.14805 7.66154 5.89091 8.4C5.63377 9.16154 5.51688 9.46154 5.47013 9.64615C5.4 9.85385 5.4 9.85385 5.25974 10.2L5.23636 10.2462C5.07273 10.6846 4.79221 11.2154 4.60519 11.5615C4.32468 11.7 4.04416 11.8385 3.64675 12.0692C2.80519 12.5538 2.22078 12.9 2.01039 13.4538C1.89351 13.7538 1.61299 14.4923 2.22078 14.9769C2.43117 15.1615 2.71169 15.2538 2.96883 15.2538C3.24935 15.2538 3.50649 15.1615 3.71688 14.9769C3.97403 14.7231 4.11429 14.4923 4.34805 14.0538C4.41818 13.9385 4.48831 13.8 4.58182 13.6154C4.95584 12.9 5.18961 12.4154 5.23636 12.3462C5.23636 12.3231 5.25974 12.3 5.28312 12.2769C5.44675 12.2077 5.63377 12.1385 5.84416 12.0462C6.61558 11.7231 6.94286 11.6308 7.64416 11.4L7.97143 11.2846C8.22857 11.1923 8.41558 11.1462 8.6026 11.0769C8.83636 10.9846 9.02338 10.9385 9.21039 10.8692C9.37403 11.0077 9.53766 11.1692 9.74805 11.3308C10.1922 11.7 10.4961 11.8846 10.8234 11.9769C11.1039 12.0462 11.5013 12.0231 11.7584 11.9538C12.5766 11.7462 12.6 11.1462 12.6234 10.8923C12.6468 10.5462 12.4364 9.94615 11.5481 9.78462ZM18 6C18 7.91538 16.4338 9.46154 14.4935 9.46154C12.5532 9.46154 10.987 7.91538 10.987 6C10.987 4.08462 12.5532 2.53846 14.4935 2.53846C16.4338 2.53846 18 4.08462 18 6ZM16.013 6.57692C16.013 6.48462 15.9896 6.39231 15.9195 6.32308C15.7792 6.18462 15.5688 6.18462 15.4286 6.32308L14.8442 6.9V4.26923C14.8442 4.08462 14.6805 3.92308 14.4935 3.92308C14.3065 3.92308 14.1429 4.08462 14.1429 4.26923V6.9L13.5818 6.34615C13.4416 6.20769 13.2312 6.20769 13.0909 6.34615C12.9506 6.48462 12.9506 6.69231 13.0909 6.83077L14.2597 7.98462L14.2831 8.00769C14.3299 8.05385 14.4 8.07692 14.4701 8.1C14.4935 8.1 14.4935 8.1 14.5169 8.1H14.5403C14.6338 8.1 14.7039 8.05385 14.774 8.00769L15.9429 6.85385C15.9896 6.76154 16.013 6.66923 16.013 6.57692Z" fill="black"/>
</svg>
