<svg xmlns="http://www.w3.org/2000/svg" width="14.153" height="14.153" viewBox="0 0 14.153 14.153">
  <path id="Icon_material-local-phone" data-name="Icon material-local-phone" d="M7.346,10.625a11.911,11.911,0,0,0,5.182,5.182l1.73-1.73a.782.782,0,0,1,.8-.189,8.969,8.969,0,0,0,2.807.448.789.789,0,0,1,.786.786v2.744a.789.789,0,0,1-.786.786A13.366,13.366,0,0,1,4.5,5.286.789.789,0,0,1,5.286,4.5H8.038a.789.789,0,0,1,.786.786,8.932,8.932,0,0,0,.448,2.807.789.789,0,0,1-.2.8l-1.73,1.73Z" transform="translate(-4.5 -4.5)" fill="#fff"/>
</svg>
