<svg width="24" height="24" viewBox="0 0 24 24" fill="none" xmlns="http://www.w3.org/2000/svg">
<path fill-rule="evenodd" clip-rule="evenodd" d="M5.66901 4.76001C5.69602 4.53295 5.77562 4.31532 5.90149 4.12442C6.02736 3.93352 6.19604 3.77462 6.39409 3.66035C6.59215 3.54608 6.81414 3.47959 7.0424 3.46616C7.27067 3.45273 7.49892 3.49274 7.70901 3.58301C8.77101 4.03701 11.151 5.11601 14.171 6.85901C17.192 8.60301 19.317 10.126 20.24 10.817C21.028 11.408 21.03 12.58 20.241 13.173C19.327 13.86 17.228 15.363 14.171 17.129C11.111 18.895 8.75901 19.961 7.70701 20.409C6.80101 20.796 5.78701 20.209 5.66901 19.232C5.53101 18.09 5.27301 15.497 5.27301 11.995C5.27301 8.49501 5.53001 5.90301 5.66901 4.76001Z" fill="white"/>
</svg>
