<svg width="80" height="80" viewBox="0 0 80 80" fill="none" xmlns="http://www.w3.org/2000/svg">
<rect width="80" height="80" rx="40" fill="#8372FC"/>
<path d="M56.4487 27.4067C58.7594 29.861 60 32.6137 60 37.0758C60 44.9277 54.4902 51.9653 46.4722 55.4448L44.4689 52.3534C51.9506 48.3063 53.4134 43.0545 53.9989 39.7432C52.7942 40.3669 51.2171 40.5845 49.6691 40.4409C45.622 40.0663 42.4319 36.7438 42.4319 32.6137C42.4319 30.5312 43.2591 28.534 44.7316 27.0615C46.2042 25.589 48.2013 24.7617 50.2838 24.7617C52.691 24.7617 54.995 25.861 56.4487 27.4067ZM34.0146 27.4067C36.3253 29.861 37.5659 32.6137 37.5659 37.0758C37.5659 44.9277 32.0561 51.9653 24.0381 55.4448L22.0348 52.3534C29.5165 48.3063 30.9792 43.0545 31.5625 39.7432C30.3578 40.3669 28.7807 40.5845 27.235 40.4409C23.1879 40.0685 20 36.746 20 32.6137C20 30.5312 20.8273 28.534 22.2998 27.0615C23.7723 25.589 25.7695 24.7617 27.8519 24.7617C30.2591 24.7617 32.5631 25.861 34.0168 27.4067" fill="white"/>
</svg>
