<svg width="44" height="44" viewBox="0 0 44 44" fill="none" xmlns="http://www.w3.org/2000/svg">
<g clip-path="url(#clip0_9_10)">
<path d="M0.880029 5.28C0.588291 5.28 0.308502 5.39589 0.102212 5.60218C-0.104078 5.80847 -0.219971 6.08826 -0.219971 6.38V37.62C-0.219971 37.9117 -0.104078 38.1915 0.102212 38.3978C0.308502 38.6041 0.588291 38.72 0.880029 38.72H30.3072C29.9233 38.2137 29.5384 37.7077 29.1527 37.202C28.6722 36.4932 27.9743 35.8864 27.7697 35.0249C24.9405 36.1926 21.6898 36.3009 18.7867 35.3316C18.7229 35.3109 18.6604 35.2854 18.5971 35.2638C18.264 35.5894 17.9049 36.157 17.8482 36.52H13.6651C13.9793 35.4556 13.3122 33.7938 13.9432 32.7105C13.9933 32.6973 14.0541 32.6124 14.0818 32.5248C14.0105 32.4579 13.9383 32.3928 13.8688 32.3246C13.2502 32.5129 13.0029 32.9789 12.6588 33.3876C12.8467 34.2782 11.4906 34.0674 11.6275 34.976C12.5721 35.7086 10.7554 35.1503 10.2151 35.2088C9.64175 35.215 7.96447 34.6148 8.54659 35.8424C8.45551 36.1794 8.53955 36.3862 8.70719 36.52H8.45023C8.41019 36.1346 7.68419 36.0774 7.40435 35.8882C6.93311 35.7738 6.37035 35.7166 5.88239 35.4992C5.75699 35.8477 4.62531 36.2463 4.37759 36.52H1.98003V20.4464C2.31751 20.6725 3.07431 20.5828 2.04295 20.0944H1.98003V15.0282C2.18023 14.927 2.32323 14.8949 2.31443 15.0643C2.81031 14.8971 3.02635 13.6902 3.88435 14.1843C4.41939 14.263 5.30467 15.0924 4.85983 15.1963C5.20655 16.0428 5.45251 15.4977 5.87799 16.5066C5.58671 17.8864 6.70211 18.909 7.31415 19.7886C8.04719 20.093 8.33715 21.0408 9.52867 21.0778C9.69059 21.2194 9.89827 21.3479 10.1147 21.4711C10.1746 21.0159 10.2577 20.565 10.3642 20.1186C10.3356 20.112 10.3079 20.108 10.2771 20.0979C9.13091 21.1552 8.89595 19.3248 10.0153 19.2531C10.0901 19.2484 10.1708 19.2521 10.2573 19.2641C10.3871 19.2487 10.4949 19.2641 10.586 19.2962C10.9536 18.0911 11.4983 16.9474 12.2021 15.9025C12.5804 15.3387 13.0047 14.8071 13.4706 14.3132C13.2392 13.926 13.0025 13.71 12.7231 14.2155C12.7019 13.4653 10.6735 12.679 12.166 13.3989C12.9488 14.0734 13.2053 13.2818 13.3289 12.7415C13.9999 12.0419 12.6412 11.803 12.8889 11.3458C12.4771 10.7285 11.8673 10.0962 11.2407 9.71388C10.0254 9.85468 9.59951 9.59816 11.2244 9.59728C11.3709 8.83828 11.6143 8.3006 11.7819 7.66172C11.6059 7.61112 11.422 7.61904 11.2407 7.6186C10.4632 7.51432 10.0017 7.81484 10.0175 8.4084C9.43363 8.36176 9.95811 7.36648 9.05787 7.67052C7.69299 7.64896 9.34299 8.11008 9.21627 8.17652C9.06007 8.52676 8.07667 8.30852 8.19239 8.6636C7.74183 7.83024 7.53679 9.06092 7.18611 8.21788C6.97491 8.01548 8.07051 8.41764 7.82103 7.67976C7.26927 7.46856 7.07171 7.83816 6.64183 7.98908C5.35879 8.69924 6.86579 9.36716 7.51743 9.60388C8.49951 9.34208 8.49863 9.0112 9.18151 9.37508C9.94711 9.79968 8.40843 9.50136 8.45551 10.1548C8.36751 9.74864 8.25751 9.50356 7.78231 10.0241C7.14871 10.1385 6.86579 9.26772 6.39279 9.32888C5.31479 9.18236 5.71739 11.6068 6.60531 10.7813C7.14255 11.711 5.91891 11.0251 5.55591 10.9212C4.73619 11.8369 3.85311 10.8975 2.87455 10.8596C2.56127 10.6511 2.25415 10.6484 1.98003 10.7545V7.48H13.5181C12.6953 7.50244 11.9605 7.61112 12.2597 8.20292C12.2113 9.34428 13.688 8.43788 13.9005 9.47012C14.5139 10.1913 13.5357 11.7247 14.5966 11.4554C14.2063 11.9302 14.2551 12.6865 14.5596 13.2827C15.686 12.3374 16.9634 11.5884 18.3383 11.0669C18.3625 10.9314 18.3436 10.7756 18.2627 10.5917C18.1249 9.90132 18.7656 9.68088 18.5412 8.91528C18.843 8.33888 18.6089 7.72904 18.0915 7.48H42.02V10.5943C41.9517 10.5653 41.8816 10.5406 41.8102 10.5204C41.1902 11.0823 41.6913 11.1355 42.02 11.0092V11.5003C41.287 11.088 40.4818 11.0427 39.6999 11.2143C39.3448 10.597 38.0877 10.6115 37.6741 10.0558C36.9455 9.1828 37.8963 9.44328 38.5321 9.37596C38.3517 8.83036 37.2693 8.57164 36.8122 8.66184C35.9863 9.11416 37.246 9.51984 37.1189 10.127C37.1189 10.5684 36.5807 10.5714 36.1113 10.5472C36.3009 10.08 35.2123 9.50532 34.7807 9.88548C33.9636 9.6382 33.6521 9.7834 34.1911 8.93244C34.0028 8.27816 33.2244 8.26584 32.8755 7.81176C32.4298 8.75688 31.6866 8.47044 30.8902 9.04596C30.5712 9.51236 29.9068 9.93124 29.8738 10.2392C29.3801 10.4711 28.886 9.28796 28.5397 10.336C28.2256 11.2231 28.5573 11.653 27.4974 10.927C26.4005 9.75788 29.7009 8.75644 28.4742 8.2588C27.456 8.5558 26.844 9.27344 26.6416 10.2929C26.532 10.5248 26.5817 10.6863 26.6975 10.817C30.5624 11.9698 33.7608 15.0779 35.061 18.891C35.0812 18.6613 35.1195 18.4404 35.1965 18.2789C35.5217 18.0308 35.2638 19.2315 35.9357 18.5486C35.4407 19.6112 37.18 18.6894 37.4154 18.2508C37.0705 17.3848 38.6562 16.977 38.6193 16.8137C38.0354 16.2012 38.3671 16.8106 37.723 16.951C37.5096 16.6668 38.1322 15.1083 37.3037 15.2513C36.0664 14.9327 38.3562 14.0215 38.9744 14.3568C39.256 13.3148 39.6607 14.1447 38.9651 14.6238C38.7002 15.5483 38.8269 16.8093 39.6062 15.5738C39.9564 15.2328 39.8693 14.344 40.3252 14.1891C40.9376 13.9005 42.0306 13.6748 42.002 12.7824C42.0081 12.7807 42.0139 12.7811 42.02 12.7798V36.52H40.2781C40.6556 35.9973 41.155 35.1032 40.6261 34.7789C39.8293 34.6412 39.2339 33.6802 38.2708 33.7203C37.8361 33.2196 36.8351 32.9661 36.5658 32.8684C36.2965 32.7708 35.8292 33.3353 35.3505 33.0858C35.2064 33.0627 35.0594 33.0654 34.9162 33.0937C36.3568 34.9637 37.7837 36.8438 39.2159 38.72H43.12C43.4118 38.72 43.6916 38.6041 43.8978 38.3978C44.1041 38.1915 44.22 37.9117 44.22 37.62V6.38C44.22 6.08826 44.1041 5.80847 43.8978 5.60218C43.6916 5.39589 43.4118 5.28 43.12 5.28H0.880029ZM22.3036 7.6208C21.5952 7.96972 22.8514 9.3588 22.8862 8.03264C23.016 8.22624 23.8867 8.4216 23.6021 7.79724C22.9693 7.42456 23.0653 7.85312 22.3032 7.62124M32.4588 7.62212C33.1276 8.0014 31.6945 7.99436 32.4588 7.62212ZM8.17963 7.7484C7.60763 8.17344 9.01915 8.59408 8.25443 7.77084L8.17963 7.7484ZM12.8634 8.00052C13.0064 8.1378 12.7222 8.08896 12.8634 8.00052ZM7.33923 8.54392C7.40655 8.6218 7.30403 8.54964 7.33923 8.54392ZM9.29855 8.7252C9.98803 8.84488 9.24575 9.0068 9.29855 8.7252ZM10.2643 8.8044C10.9199 8.7626 10.505 8.9672 10.2643 8.8044ZM8.33935 8.83344C8.76571 8.87744 8.28479 9.031 8.33935 8.83344ZM9.70423 9.45296C10.1354 9.5524 9.49215 9.58716 9.70423 9.45296ZM10.0083 10.1389C9.74867 10.967 10.9309 12.0881 10.0135 11.1443C9.76143 10.7668 9.63031 10.4051 10.0083 10.1389ZM8.46915 10.2225C8.84711 10.8539 9.42263 11.0224 8.94083 11.2398C8.62095 11.0849 8.54703 10.6027 8.46915 10.2225ZM14.3999 10.8588C14.4531 10.8944 14.2565 10.8676 14.3999 10.8588ZM5.47847 11.0581C5.42919 11.2578 5.41027 11.0612 5.47847 11.0581ZM8.88583 11.381C8.85503 11.7973 8.68475 11.3736 8.88583 11.381ZM11.4149 11.3837C11.2504 12.1977 11.9033 12.1458 11.8593 12.2276C11.3199 12.4652 11.4488 13.4438 11.0361 12.6971C10.7756 12.5756 11.1699 11.5012 11.3472 11.407L11.4149 11.3837ZM8.76307 11.3846C8.82071 11.3978 8.75911 11.5751 8.76307 11.3846ZM40.5909 11.4576C40.6085 11.4875 40.5143 11.5324 40.5909 11.4576ZM8.79475 11.5641C9.09483 11.8782 8.39259 11.8501 8.79475 11.5641ZM22.7771 11.9966C20.3777 12.0134 18.0488 12.8093 16.141 14.2644C11.2614 17.9802 10.3119 24.985 14.0277 29.8646C17.5059 34.4322 23.8573 35.534 28.6577 32.6093L29.5746 33.8136C29.3942 34.2333 29.4109 34.6346 29.6208 34.9109L36.2736 43.6471C36.6696 44.1668 37.6257 44.1047 38.4089 43.5081C39.1921 42.9119 39.5059 42.0068 39.1103 41.4867L32.4575 32.7505C32.2472 32.4742 31.8648 32.351 31.4121 32.4135L30.4951 31.2096C34.5911 27.3596 35.2189 20.9444 31.7412 16.3768C29.8831 13.937 27.2026 12.4806 24.3769 12.0978C23.8467 12.026 23.3121 11.9921 22.7771 11.9966ZM10.2859 13.1001C10.5609 13.7531 11.6231 13.3698 11.2073 14.26C11.6701 14.6956 11.1338 16.2312 10.9538 14.9226C9.80191 14.9169 9.25191 13.7676 10.219 13.1644L10.2859 13.1001ZM11.2895 13.2084C11.6415 13.5076 10.7351 13.3751 11.2895 13.2084ZM38.9339 14.0127C39.0412 14.1486 38.9647 13.9907 38.9339 14.0127ZM23.2201 14.4619C23.4973 14.4728 23.7731 14.4965 24.0473 14.5332C25.175 14.6856 26.2613 15.0594 27.244 15.6332C28.2266 16.2069 29.0861 16.9692 29.7731 17.8763C30.4642 18.78 30.9701 19.8112 31.2617 20.9109C31.5533 22.0105 31.6248 23.157 31.4721 24.2843C31.3195 25.4117 30.9457 26.4978 30.3722 27.4804C29.7986 28.4629 29.0367 29.3225 28.1301 30.0098C27.2265 30.701 26.1952 31.207 25.0955 31.4986C23.9958 31.7902 22.8493 31.8617 21.7219 31.709C20.5944 31.5564 19.5082 31.1826 18.5257 30.609C17.5431 30.0354 16.6835 29.2735 15.9962 28.3668C15.3051 27.4631 14.7992 26.4319 14.5077 25.3322C14.2161 24.2325 14.1447 23.0861 14.2974 21.9587C14.4501 20.8313 14.8239 19.7452 15.3975 18.7627C15.971 17.7802 16.733 16.9206 17.6396 16.2334C19.2363 15.0102 21.2103 14.3836 23.2201 14.4619ZM40.1989 14.9151C41.0283 15.382 39.5081 15.4867 40.1989 14.9151ZM41.0217 15.3912C41.69 15.7652 40.257 15.7648 41.0217 15.3912ZM41.5197 15.5654C42.2149 15.8347 40.8377 16.133 41.5197 15.5654ZM41.4925 15.6886C41.5303 15.6882 41.4692 15.7287 41.4925 15.6886ZM41.5576 15.7595C41.5783 15.7929 41.5026 15.7665 41.5576 15.7595ZM22.9284 16.2184C21.9666 16.2012 21.0171 16.4164 20.1415 16.8027C20.1872 16.8586 20.2528 16.9123 20.3487 16.9607C19.4687 16.6747 19.2126 17.7866 19.5831 18.2868L20.1784 18.3357L20.6761 18.1166C20.9977 17.7822 21.0778 17.8398 21.1816 17.3334L21.3757 17.3584L21.5297 17.2942L21.8803 17.4676C22.301 17.6321 22.3208 17.9868 22.18 18.0906C21.9807 18.2134 22.2156 18.2314 22.235 18.3075C22.3344 18.2789 22.3925 18.1931 22.455 18.1474L22.5676 18.1069C22.9786 17.8372 22.6917 17.7483 22.4061 17.3844L22.5575 17.4231C22.7788 17.6739 22.9091 17.9577 23.0402 18.2591C23.0551 18.271 23.0688 18.2864 23.0859 18.2917C23.1854 18.3247 23.3257 18.3137 23.4459 18.2807C23.5647 18.2481 23.5726 18.0215 23.5523 17.8046C23.7217 18.5772 25.3832 18.3476 24.3945 18.8188C23.8247 18.8316 22.9192 18.5192 22.7524 18.9138C22.3837 18.7466 22.1954 18.6371 22.1206 18.5513C21.8935 18.4659 21.2401 18.2186 21.2168 18.2186C21.1891 18.2186 20.3575 18.37 20.3575 18.37L19.6711 18.6305C19.448 19.3494 19.096 18.9649 18.9763 19.5224C18.8826 19.8788 18.0761 20.6488 18.4985 21.2551C18.8756 23.0089 21.0619 21.8412 21.5715 22.6833C21.3321 23.2021 22.5161 24.189 21.8535 25.0386C22.1659 26.2728 23.0054 28.336 24.3562 26.5795C24.7126 25.5279 25.48 24.9594 25.4527 23.9162C25.0448 22.8888 27.4459 22.1272 26.4854 21.2951C26.2553 21.3224 26.2289 21.3721 26.0463 21.4328C25.6626 21.4183 25.5636 21.109 25.4329 20.9145C25.3331 20.7726 25.2448 20.623 25.1689 20.467C25.4131 20.8454 25.6652 21.1666 26.019 21.3642C26.631 21.2269 27.3328 20.7742 27.6184 20.442C27.6113 19.147 29.352 20.4904 29.3168 21.4636C29.4246 21.7259 29.5614 21.908 29.6987 22.0145C29.6015 21.392 29.4157 20.7865 29.1469 20.2167C28.659 19.1457 27.8775 18.2261 26.928 17.538C26.9104 17.5652 26.8664 17.567 26.8752 17.501C26.7467 17.4101 26.6155 17.3234 26.4814 17.241C26.4961 17.3023 26.5135 17.3643 26.5338 17.4271C26.4761 17.3413 26.4154 17.2542 26.3653 17.1701C25.3286 16.5594 24.1397 16.2092 22.9289 16.218L22.9284 16.2184ZM37.2447 16.2765C37.5637 17.1855 36.135 19.2922 35.9273 17.9093C36.0739 17.2256 37.2465 17.3285 37.2447 16.2765ZM10.4597 16.5167C10.5239 16.5092 10.4496 16.5497 10.4597 16.5167ZM11.1377 16.8366C11.2658 16.9431 10.9829 16.9167 11.1377 16.8366ZM24.3501 16.8656C24.7051 17.1648 25.7946 17.5608 24.6413 17.2449C24.0412 17.519 23.8555 17.3435 24.3501 16.8656ZM21.6053 17.398C21.5279 17.4218 21.5935 17.5824 21.5451 17.633C21.8751 17.7945 21.6903 17.4803 21.7391 17.4288C21.6722 17.3972 21.6309 17.3897 21.6053 17.398ZM26.6359 17.7258C26.7379 17.9912 26.8057 18.1606 26.5435 17.8314C26.5653 17.8211 26.5848 17.8064 26.6006 17.7882C26.6165 17.7701 26.6285 17.7488 26.6359 17.7258ZM21.6361 17.7588C21.5068 17.7448 21.4381 17.8314 21.4377 17.9524C21.7787 18.1377 21.7435 17.8319 21.7853 17.8086C21.7388 17.7831 21.6886 17.7663 21.6361 17.7588ZM26.9043 19.6434C27.0987 19.6513 26.7181 19.925 26.7833 19.6588C26.8374 19.6469 26.8765 19.642 26.9043 19.6434ZM40.3071 21.3646C41.0622 22.1562 39.6735 22.0378 40.3071 21.3646ZM40.2631 21.4694C40.3282 21.4623 40.2512 21.5142 40.2631 21.4694ZM40.3177 21.5657C40.3238 21.611 40.2517 21.5547 40.3177 21.5657ZM40.7783 21.6537C41.5193 21.9934 40.1645 22.1879 40.7783 21.6537ZM40.8444 21.8055C40.891 21.7976 40.8356 21.8702 40.8444 21.8055ZM40.7577 21.8288C40.7981 21.8834 40.722 21.8596 40.7577 21.8288ZM35.743 22.5205C35.7538 22.7951 35.7562 23.0693 35.75 23.3433C36.2547 23.4238 36.887 23.401 36.8989 23.9593C37.8035 23.9985 36.8056 25.3198 36.7726 24.0966C36.404 24.0435 36.0281 24.1072 35.6977 24.2788C35.6061 25.2389 35.4096 26.1862 35.1116 27.1036C35.8508 26.869 36.6049 26.8919 37.0502 27.6104C38.2228 27.606 37.2253 28.4055 38.0565 28.5688C38.4107 27.8454 37.87 27.9365 38.5344 27.3469C39.179 26.5228 38.757 25.4584 38.1141 25.0083C37.9804 24.4988 37.4475 24.2233 37.6983 23.8757C38.1867 24.5379 38.8789 24.042 38.3011 23.6839C38.7275 23.2857 40.2508 24.71 39.3954 23.6144C38.973 23.536 38.3927 22.6626 38.2611 23.225C38.2233 23.6914 37.0595 22.517 36.63 22.9975C36.5059 22.5645 35.8988 22.8259 35.8644 23.019C36.051 22.7286 35.9335 22.5786 35.743 22.5205ZM37.9817 22.8967C38.5511 23.2426 37.3512 23.2549 37.9817 22.8967ZM21.5103 22.9275C21.5609 23.0419 21.4958 22.9464 21.5103 22.9275ZM15.987 22.9812C15.9738 23.5922 16.0417 24.2022 16.1889 24.7953C16.6949 24.0288 16.6751 23.309 15.987 22.9812ZM37.9491 23.0023C37.987 23.0296 37.9025 23.0129 37.9491 23.0023ZM38.3755 23.0551C38.581 23.2003 38.1696 23.2003 38.3755 23.0551ZM38.3755 23.0595C38.5625 23.1942 38.1881 23.1942 38.3755 23.0595ZM37.9914 23.0978C37.9984 23.1422 37.9263 23.0899 37.9914 23.0978ZM35.7465 23.5756C35.7421 23.6812 35.7329 23.7868 35.7258 23.8924C35.8679 23.7323 35.9295 23.5668 35.7465 23.5756ZM25.718 24.0315C25.2094 24.3109 26.2623 24.4385 25.8223 24.1107L25.8034 24.0636L25.718 24.0315ZM26.3129 24.1098C25.8104 24.424 25.0307 25.9217 26.1118 25.9688C26.3723 25.659 27.0327 24.2779 26.3129 24.1098ZM39.9423 25.0637C41.1114 25.5402 39.5397 25.8579 39.9423 25.0637ZM27.1181 25.1693C27.7521 25.5526 26.4643 25.608 27.1181 25.1693ZM40.9917 26.9804C41.364 27.823 40.1293 28.3276 40.2226 29.11C40.8562 29.4153 41.1831 28.266 41.6293 27.9145C42.1569 27.4534 41.2139 27.317 40.9917 26.9804ZM11.7282 29.572C11.8004 30.0357 12.0177 30.4845 12.4058 30.6214C12.163 30.2828 11.9368 29.9326 11.7282 29.572Z" fill="black"/>
</g>
<defs>
<clipPath id="clip0_9_10">
<rect width="44" height="44" fill="white"/>
</clipPath>
</defs>
</svg>
