<svg width="44" height="45" viewBox="0 0 44 45" fill="none" xmlns="http://www.w3.org/2000/svg">
<path d="M42.8413 17.9749H42.344C40.852 19.9642 38.7206 21.3851 36.234 22.0956C35.7366 22.2377 35.3103 22.3088 34.813 22.3798C34.813 23.7297 34.5288 25.0085 34.1025 26.2874C33.9605 26.7847 33.7473 27.282 33.4631 27.7794C32.1843 30.3371 30.1239 32.3974 27.6373 33.6052C27.1399 33.8184 26.6426 34.0315 26.1453 34.2446C24.8664 34.6709 23.4455 34.8841 22.0246 34.8841C20.6036 34.8841 19.1827 34.6709 17.9038 34.1736C17.8328 34.1736 17.7617 34.1025 17.6907 34.1025L13.7831 38.0101C14.7778 38.5075 15.8435 38.9337 16.9802 39.289C17.4776 39.4311 17.8328 39.9284 17.8328 40.4968V42.9124C17.8328 43.6228 18.4012 44.1202 19.0406 44.1202H24.8664C25.5769 44.1202 26.0742 43.5518 26.0742 42.9124V40.4968C26.0742 39.9284 26.4295 39.5021 26.9268 39.289C28.2057 38.9337 29.4134 38.4364 30.5502 37.797C31.0475 37.5128 31.6159 37.6549 31.9711 38.0101L33.6763 39.7153C34.1736 40.2126 34.9551 40.2126 35.3814 39.7153L39.5021 35.5945C39.9994 35.0972 39.9994 34.3157 39.5021 33.8894L37.797 32.1843C37.4418 31.829 37.2997 31.1896 37.5839 30.7633C38.2233 29.6266 38.7206 28.4188 39.0758 27.1399C39.2179 26.6426 39.7153 26.2874 40.2836 26.2874H42.7703C43.4808 26.2874 43.9781 25.719 43.9781 25.0796V19.2537C44.1202 18.4722 43.5518 17.9749 42.8413 17.9749ZM35.8077 4.6891L32.6106 7.88621L33.6763 10.4439L36.234 11.5096L39.4311 8.3125L35.8077 4.6891ZM24.9375 0H19.1116C18.4722 0 17.9038 0.568376 17.9038 1.2078V3.69444C17.9038 4.26282 17.5486 4.6891 17.0513 4.83119C15.7724 5.18643 14.5646 5.68376 13.4279 6.32318C12.9305 6.60737 12.3622 6.46528 12.0069 6.11004L10.3018 4.40491C9.80448 3.90758 9.02297 3.90758 8.59668 4.40491L4.47596 8.52564C3.97863 9.02297 3.97863 9.80448 4.47596 10.2308L6.18109 11.9359C6.53632 12.2911 6.67842 12.9306 6.39423 13.3568C5.75481 14.4936 5.25748 15.7014 4.90224 16.9802C4.76015 17.4776 4.26282 17.8328 3.76549 17.8328H1.2078C0.568376 17.8328 0 18.4012 0 19.0406V24.8664C0 25.5769 0.568376 26.0742 1.2078 26.0742H3.69444C4.26282 26.0742 4.6891 26.4295 4.83119 26.9268C5.18643 28.0636 5.61271 29.1293 6.11004 30.1239L10.0176 26.2163C10.0176 26.1453 9.94658 26.0742 9.94658 26.0032C9.44925 24.9375 9.23611 23.5166 9.23611 22.0956C9.23611 20.6747 9.44925 19.2537 9.94658 17.9749C10.0887 17.4776 10.3018 16.9802 10.586 16.4829C11.8648 13.9252 13.9252 11.8648 16.4119 10.657C16.9092 10.4439 17.4065 10.2308 17.9038 10.0176C19.1116 9.59134 20.4615 9.3782 21.8114 9.30715C21.8825 8.88087 21.9535 8.38354 22.0956 7.95726V7.88621C22.735 5.39957 24.227 3.26816 26.2163 1.70513V1.27885C26.1453 0.568376 25.648 0 24.9375 0Z" fill="black"/>
<path d="M42.2019 13.2858L43.3386 9.02298C43.4097 8.80984 43.3386 8.66775 43.1965 8.52565C42.9834 8.31251 42.6282 8.31251 42.415 8.52565L36.7313 14.2094L31.9711 12.1491L29.9108 7.31786L35.5945 1.6341C35.8077 1.42096 35.8077 1.06572 35.5945 0.852581C35.4524 0.781534 35.2393 0.710487 35.0972 0.781534L30.8344 1.91829C27.6373 2.77085 25.0796 5.32854 24.227 8.52565C23.6586 10.6571 23.8718 12.8595 24.7954 14.8488L6.6784 32.8948C5.11536 32.6816 3.41024 33.179 2.20244 34.3868C0.142075 36.4471 0.142075 39.7863 2.20244 41.9177C4.2628 43.9781 7.60201 43.9781 9.73342 41.9177C10.9412 40.7099 11.4385 39.0048 11.2254 37.4418L29.2713 19.3958C31.1896 20.3195 33.4631 20.5326 35.5945 19.9642C38.8627 19.0406 41.3493 16.4829 42.2019 13.2858ZM4.19175 39.9284C3.1971 38.9338 3.1971 37.2997 4.19175 36.3761C5.18641 35.3814 6.82049 35.3814 7.7441 36.3761C8.66771 37.3707 8.73876 39.0048 7.7441 39.9284C6.74944 40.9231 5.18641 40.9231 4.19175 39.9284Z" fill="black"/>
</svg>
