<svg width="18" height="18" viewBox="0 0 18 18" fill="none" xmlns="http://www.w3.org/2000/svg">
<g clip-path="url(#clip0_152_996)">
<path fill-rule="evenodd" clip-rule="evenodd" d="M9.68063 1.18577C9.6206 1.05567 9.52456 0.945495 9.40387 0.868268C9.28319 0.791041 9.14291 0.75 8.99963 0.75C8.85635 0.75 8.71607 0.791041 8.59538 0.868268C8.47469 0.945495 8.37866 1.05567 8.31863 1.18577L6.16613 5.85077L1.06538 6.45602C0.923064 6.47283 0.788544 6.53005 0.677738 6.62092C0.566931 6.71179 0.484477 6.8325 0.440133 6.96876C0.395789 7.10503 0.391412 7.25115 0.427519 7.38983C0.463627 7.5285 0.538708 7.65393 0.643876 7.75127L4.41638 11.2388L3.41513 16.2788C3.38732 16.4193 3.40031 16.5648 3.45258 16.6981C3.50486 16.8315 3.59421 16.9471 3.71009 17.0312C3.82597 17.1154 3.96352 17.1646 4.10649 17.1731C4.24946 17.1816 4.39187 17.1489 4.51688 17.079L8.99963 14.5695L13.4824 17.079C13.6075 17.1492 13.75 17.1821 13.8932 17.1737C14.0364 17.1653 14.1742 17.116 14.2902 17.0317C14.4063 16.9474 14.4957 16.8316 14.5479 16.698C14.6002 16.5644 14.613 16.4187 14.5849 16.278L13.5836 11.2395L17.3554 7.75127C17.4605 7.65393 17.5356 7.5285 17.5717 7.38983C17.6078 7.25115 17.6035 7.10503 17.5591 6.96876C17.5148 6.8325 17.4323 6.71179 17.3215 6.62092C17.2107 6.53005 17.0762 6.47283 16.9339 6.45602L11.8324 5.85002L9.68063 1.18577Z" fill="#FFC700"/>
</g>
<defs>
<clipPath id="clip0_152_996">
<rect width="18" height="18" fill="white"/>
</clipPath>
</defs>
</svg>
